<svg xmlns="http://www.w3.org/2000/svg" xmlns:svg="http://www.w3.org/2000/svg" id="svg2211" width="706" height="500" version="1.0"><path id="path2223" fill="#000" d="M 482.47122,483.65668 C 482.09821,481.16923 482.00349,468.19138 482.26073,454.81702 C 482.85598,423.86986 485.74029,409.33575 508.02304,325 C 517.97202,287.34512 518.96876,261.67667 510.62952,257.87706 C 503.22084,254.50144 495.51948,258.76554 483.33874,272.98748 C 444.87758,317.89379 384.416,371.63828 336.592,403.43111 C 234.38064,471.38003 125.75165,495.91654 61.5,465.56738 C 14.135995,443.19507 -9.4559604,386.23292 7.5301438,335.2586 C 23.728797,286.64738 86.775557,268.60992 123.4217,302.10244 C 141.67589,318.78573 137.19751,348.25122 114.70406,359.46018 C 96.526568,368.51841 73.570329,349.94535 79.65551,331.10368 C 81.787859,324.50125 81.436951,324.28716 72.953651,327.0149 C 23.293219,342.98286 33.831342,415.54173 88.682829,435.31611 C 152.06988,458.16762 251.76781,426.54376 351.5,351.95135 C 391.05504,322.36706 438.67015,273.24845 433.13368,267.73999 C 431.50743,266.12196 409.19769,266.53511 388,268.57582 C 325.73643,274.56995 251.40446,262.42665 164,231.98188 C 152.725,228.05456 136.525,222.43341 128,219.49042 C 109.63237,213.14958 75.226122,204.4179 51.5,200.07611 C 42.15,198.3651 33.478754,196.73725 32.230564,196.45866 L 29.961129,195.95214 L 30.230564,174.3183 L 30.5,152.68446 L 39,150.74391 C 72.50072,143.09568 128.76294,128.99955 175,116.66999 C 278.32991,89.11608 289.32495,86.38305 310.5,82.98883 C 383.04703,71.36 422.7219,78.62443 574.31118,131.29245 C 602.82103,141.19788 634.45188,143.67699 662.03604,138.16802 C 668.38086,136.90086 675.54332,136.00717 677.95262,136.18205 L 682.33316,136.5 L 691.61566,157 C 696.72104,168.275 700.92108,177.75395 700.94908,178.06434 C 700.97709,178.37472 694.8125,179.42018 687.25,180.38758 C 628.89838,187.85196 595.69886,201.31776 576.89325,225.14854 C 562.86714,242.92267 559.1993,250.80358 556.38741,269.20848 C 552.05483,297.56695 558.59871,307.69047 590.22312,321.55294 C 598.33549,325.10898 598.36533,325.2104 591.75,326.74292 C 566.33045,332.63166 554.58404,346.42334 542.01437,385.13842 C 521.75002,447.55347 501.97616,483.58514 485.82472,487.52648 C 483.28485,488.14627 483.11511,487.95039 482.47122,483.65668 z M 424.2218,225.63181 C 474.97905,220.35891 533.69333,201.01428 568.3406,178.14891 L 572.18119,175.61432 L 564.6736,171.83682 C 544.62325,161.74834 515.9203,151.09439 477.85766,139.61248 C 468.37374,136.75158 435.02218,129.50425 417.73035,126.54674 L 413.96069,125.902 L 414.73035,130.201 C 421.33896,167.11429 399.13266,191.38005 360.2101,189.77757 C 325.46755,188.34718 305.90676,167.5813 310.49936,137.00427 C 311.3496,131.34347 311.86562,126.53229 311.64607,126.31274 C 310.91615,125.58281 254.01865,138.94051 216.75536,148.59001 C 184.37601,156.9748 143.86144,166.87973 118,172.73355 L 109.5,174.65755 L 123,178.84822 C 130.425,181.15309 154.725,189.0744 177,196.45112 C 234.90395,215.62695 267.37147,222.92242 312.89555,226.98694 C 328.35761,228.36743 407.1171,227.40873 424.2218,225.63181 z M 35.354897,110.38623 C 35.716536,99.99881 36.572127,87.9 37.256211,83.5 L 38.5,75.5 L 56.5,75.47117 C 89.061602,75.41901 105.13604,71.29991 198.5,39.083437 C 273.3851,13.243341 349.47211,3.065576 403.05014,11.721825 C 448.7358,19.102957 499.55051,32.310146 558,51.99465 C 615.37673,71.31787 646.14746,74.42614 681.5,64.46987 C 684.63769,63.58621 703.5919,96.68847 701.36023,99.15444 C 699.55859,101.14524 692.34416,104.11236 682,107.11686 C 671.59412,110.13927 628.62391,111.07697 614.24412,108.59543 C 603.42274,106.72796 561.07836,94.69295 532.5,85.36232 C 458.57731,61.22709 370.02847,49.18587 319,56.32973 C 273.61484,62.68354 255.87256,67.04951 198.71398,85.92932 C 131.51605,108.12519 72.656502,123.90207 39.598686,128.57904 L 34.697371,129.27247 L 35.354897,110.38623 z"/></svg>