<svg xmlns="http://www.w3.org/2000/svg" xmlns:svg="http://www.w3.org/2000/svg" id="svg3339" width="265.051" height="300.112" version="1.1" viewBox="-2.38 -2.38 48.27 54.625"><metadata id="metadata11"/><path id="path3112" fill="#f95" fill-opacity="1" fill-rule="nonzero" stroke="none" d="m 8.9901069,11.792255 c -0.03,0.0587 -0.01,0.1575 0.0212,0.20375 0.05,-0.004 0.1675,-0.0387 0.2325,-0.0788 0.0738,-0.045 0.095,-0.0813 0.17375,-0.1375 -0.0762,-0.005 -0.41625,-0.007 -0.4275,0.0125"/><path id="path3128" fill="#742e67" fill-opacity="1" fill-rule="nonzero" stroke="none" d="m 17.517607,3.1985048 c 0,0.21 -0.32,0.33375 -0.385,0.42875 -0.0312,0.0462 -0.0587,0.0763 -0.0725,0.12625 -0.0387,-0.135 0.0337,-0.2475 0.0337,-0.345 0,-0.11 -0.0775,-0.1625 -0.18875,-0.1625 -0.1675,0 -0.61875,0.40625 -0.34625,1.05875 -0.0188,-0.23125 0.0675,-0.385 0.10625,-0.42625 0.0387,-0.0437 0.075,-0.12875 0.0662,-0.19625 0.0888,0.16125 0.105,0.2325 0.105,0.36125 0,0.28 -0.20125,0.3375 -0.10625,0.54375 0.0175,0.0563 0.035,0.1025 0.065,0.17625 0,-0.0988 0.0175,-0.18375 0.0337,-0.2525 0.0175,-0.0675 0.125,-0.19625 0.1375,-0.2475 0.0125,-0.0513 0.0175,-0.10375 0.004,-0.1675 0.09,0.11125 0.15,0.20875 0.15,0.38875 0,0.21 -0.0937,0.33 -0.12,0.39 -0.025,0.06 -0.055,0.11875 -0.0687,0.22125 -0.0575,0.4625 -0.285,0.68 -0.585,0.68 -0.18875,0 -0.32875,-0.0288 -0.44875,-0.10625 0,0.59375 -0.67625,0.5475 -0.67625,0.935 0,0.1075 0.0725,0.235 0.14625,0.30875 0.0713,0.0725 0.34625,0.17375 0.4475,0.30625 -0.14625,0.01 -0.30625,0.0613 -0.39125,0.16 0.2425,0.12 0.23625,0.2575 0.2675,0.4425 -0.23875,-0.12 -0.3475,-0.05 -0.40875,0.0138 -0.0725,0.0775 -0.0375,0.17875 -0.12125,0.2975 -0.0387,-0.0937 -0.10125,-0.1725 -0.20375,-0.1725 -0.1025,0 -0.315,0.185 -0.3175,0.245 -0.009,0.1625 -0.0863,0.22625 -0.2325,0.245 -0.10875,0.1175 -0.0838,0.17625 -0.0788,0.285 -0.095,-0.0888 -0.11,-0.1475 -0.0738,-0.31 -0.11,-0.045 -0.0962,-0.1375 -0.0637,-0.2175 l -0.0412,-0.0288 c -0.0588,0.0525 -0.12,0.12625 -0.26625,0.0587 -0.055,0.0238 -0.12875,0.11 -0.14,0.2125 -0.0387,-0.245 0.0387,-0.33 0.0787,-0.36625 -0.025,-0.055 0.0113,-0.17125 0.11,-0.215 0,-0.0238 -0.009,-0.0362 -0.0125,-0.0488 -0.0813,0 -0.14875,-0.0325 -0.17875,-0.085 -0.0788,-0.0163 -0.18625,0.0788 -0.20625,0.135 0,-0.1375 0.10875,-0.2775 0.19,-0.31 0.0925,-0.1825 0.2675,-0.215 0.37375,-0.10875 0.0588,0.0575 0.19875,0.12125 0.34125,0.12125 0.14125,0 0.27125,-0.1175 0.30625,-0.16375 0.0337,-0.0475 0.0387,-0.0562 0.055,-0.095 0.03,-0.07 0.09,-0.15375 -0.055,-0.33875 -0.115,-0.14375 -0.40375,-0.42625 -0.40875,-0.6275 -0.009,-0.33125 0.145,-0.52375 0.29375,-0.655 -0.0525,0 -0.0387,0 -0.1175,0 -0.2125,0 -0.23,-0.1325 -0.445,-0.1325 -0.15875,0 -0.2525,0.1575 -0.2525,0.295 0,0.1375 0.025,0.16625 0.0738,0.255 0.065,0.12125 0.0887,0.1875 0.0712,0.31125 -0.125,-0.1125 -0.3025,-0.16875 -0.4425,-0.0438 -0.055,0.15875 -0.09,0.22 -0.19125,0.29625 -0.008,-0.1325 -0.2775,-0.34125 -0.51875,-0.1175 -0.025,0.0562 -0.045,0.18125 -0.215,0.18125 -0.1,0 -0.09,-0.0238 -0.13125,-0.0412 -0.07,0.06 -0.1275,0.1275 -0.1475,0.2125 -0.0362,-0.13 0.01,-0.2425 0.0563,-0.2975 -0.0163,-0.0563 -0.0113,-0.1975 0.0612,-0.23625 -0.0213,-0.0238 -0.0137,-0.007 -0.0337,-0.0412 -0.10375,0.0888 -0.27125,0.0987 -0.3425,-0.002 -0.0613,0.0125 -0.12,0.055 -0.185,0.18625 -0.015,-0.13375 0.075,-0.285 0.1375,-0.32875 10e-4,-0.10125 0.14125,-0.19 0.28375,-0.15875 0.01,-0.0175 -0.002,-0.0288 0.0138,-0.05 0.0137,-0.0213 -0.005,-0.0113 -0.005,-0.0113 -0.0425,-0.0225 -0.17875,-0.0275 -0.16875,-0.1975 -0.0825,-0.03 -0.16125,0.009 -0.2175,0.0588 0.055,-0.145 0.17625,-0.1925 0.27,-0.2 0.0337,-0.0637 0.1375,-0.0712 0.19125,-0.0712 0.0987,0 0.165,0.0475 0.18125,0.11 0.10125,0.1775 0.3275,0.23625 0.55,0.23625 0.11125,0 0.205,-0.085 0.205,-0.2125 0,-0.12875 -0.21875,-0.5025 -0.21875,-0.67375 0,-0.17125 0.3075,-0.49875 0.5125,-0.49875 0.62625,0 0.77,0.26 0.91125,0.26 0.1975,0 0.22375,-0.04 0.25375,-0.0713 -0.29375,-0.36375 -0.4825,-0.355 -0.76375,-0.54875 -0.1425,-0.0975 -0.215,-0.26125 -0.235,-0.41375 -0.175,0.04 -0.345,0.2725 -0.42625,0.4175 -0.0387,-0.0687 -0.0987,-0.115 -0.17125,-0.115 -0.13875,0 -0.23875,0.18125 -0.305,0.33625 -0.0387,-0.1775 -0.145,-0.34125 -0.34875,-0.34125 -0.11375,0 -0.2425,0.0487 -0.275,0.1225 -0.0325,0.0725 -0.14,0.1825 -0.3075,0.14 -0.06,0.0425 -0.115,0.06 -0.1575,0.245 -0.0575,-0.23125 0,-0.27625 0.0325,-0.33375 -0.0325,-0.1525 0.03,-0.2075 0.06,-0.245 l -0.0163,-0.0412 c -0.0913,0.03 -0.22625,0.02 -0.265,-0.0588 -0.1025,-0.005 -0.13125,0.007 -0.22,0.14 0.0175,-0.14875 0.1025,-0.27125 0.195,-0.30625 0.035,-0.0875 0.15625,-0.12375 0.25125,-0.12375 0.009,-0.0238 0.0162,-0.0238 0.02,-0.045 -0.0612,-0.0337 -0.115,-0.1125 -0.1025,-0.20625 -0.0762,-0.0888 -0.16125,-0.0325 -0.23125,-0.007 0.1225,-0.1275 0.2675,-0.175 0.36625,-0.11875 0.21125,-0.07 0.28375,0.0288 0.30375,0.14625 0.0238,0.13625 0.23625,0.155 0.455,0.155 0.48125,0 1.2425,-0.44625 1.1875,-0.80125 -0.11375,-0.0275 -0.12625,-0.0238 -0.215,-0.0238 -0.25625,0 -0.5775,0.32125 -0.83,0.325 0.12625,-0.1425 0.0488,-0.2875 0.11875,-0.3925 -0.13875,-0.004 -0.28,0.0838 -0.545,0.06 0.09,-0.0538 0.15,-0.24 0.15,-0.305 0,-0.0663 0,-0.19625 -0.285,-0.19625 -0.0275,0.007 -0.10375,0.0325 -0.16125,0.0325 -0.0675,0 -0.25625,-0.0175 -0.25625,-0.16625 -0.0925,-0.02 -0.1625,0.004 -0.2625,0.08 0.02,-0.1025 0.215,-0.2325 0.2725,-0.24125 0.0388,-0.08 0.1175,-0.115 0.15625,-0.11 0.009,-0.0413 0.008,-0.004 0.01,-0.0525 -0.0962,-0.0138 -0.22,-0.0487 -0.2175,-0.21 -0.0687,-0.0625 -0.11125,-0.0762 -0.265,-0.0362 0.19125,-0.14125 0.25875,-0.12 0.32,-0.0975 0.14,-0.105 0.255,-0.0475 0.29375,-0.002 0.0163,-0.02 0.0312,-0.0238 0.0387,-0.0412 -0.0325,-0.10125 -0.0125,-0.2 0.0312,-0.245 -0.004,-0.11000003 -0.0537,-0.14500003 -0.1575,-0.16625003 0.21125,0.004 0.29625,0.0525 0.365,0.13000003 0.12125,0.0162 0.1975,0.1225 0.2,0.19875 0.004,0.2 -0.2075,0.335 0.19875,0.545 0.12625,0.065 0.305,0.13 0.48375,0.18375 0.18,0.0525 0.40125,0.1325 0.49125,0.1325 -0.07,-0.10875 -0.0412,-0.21875 -0.155,-0.32875 0.13,-0.009 0.28875,0.0362 0.40625,0.0612 -0.0238,-0.16 0.015,-0.16 -0.09,-0.2575 0.09,0.0125 0.21625,0.0138 0.28625,0.0213 0.4625,0.05 0.46875,-0.18 0.55875,-0.47125 -0.1575,0.009 -0.42375,0.0487 -0.675,0.21625 0.0238,-0.0875 -0.002,-0.15625 -0.002,-0.23 0,-0.13750003 0.1075,-0.16625003 0.1625,-0.16625003 0.0238,0 0.0925,-0.01 0.14375,-0.01 0.1025,0 0.24375,-0.115 0.1775,-0.34125 -0.0312,-0.1075 -0.11375,-0.17375 -0.2075,-0.14625 -0.0688,0.02 -0.085,0.0175 -0.18625,0.055 -0.0775,0.0288 -0.10125,0.0888 -0.11,0.17125 -0.0163,-0.0375 -0.0438,-0.14125 -0.0575,-0.1675 -0.015,-0.03 -0.025,-0.0488 -0.0525,-0.11875 -0.009,-0.0213 -0.007,-0.0213 -0.02,-0.05 -0.0487,-0.11375 0.0288,-0.20875 0.12625,-0.2275 0.0813,-0.0175 0.21125,-0.05 0.2925,-0.0738 0.16125,-0.0487 0.21,-0.11125 0.24375,-0.195 0.0362,-0.0888 0.0588,-0.12375 0.20625,-0.12375 0.0462,0 0.21375,0.004 0.29,0.004 0.225,0 0.47625,-0.1825 0.39375,-0.37625 0.15625,0.0288 0.21875,0.2775 0.18,0.37625 0.0725,0 0.31625,-0.0475 0.37125,-0.0937 -0.001,0.1675 -0.1325,0.375 -0.22625,0.4275 0.11875,0.0125 0.33,-0.005 0.3925,-0.06 -0.0387,0.1275 -0.175,0.40125 -0.26,0.44 0.2075,0.0713 0.345,0.18375 0.43875,0.44375 -0.15875,-0.0663 -0.2525,0.0125 -0.39125,-0.009 0.285,0.33250003 0.39125,0.84000003 0.47375,0.96625003 -0.0775,-0.0412 -0.23125,-0.1275 -0.34625,-0.17 0.1175,0.27625 -0.0575,0.54875 -0.0312,0.69625 -0.0887,-0.0513 -0.205,-0.115 -0.2425,-0.18875 -0.0475,0.1125 -0.145,0.33 -0.1075,0.6125 -0.0725,-0.0775 -0.19625,-0.1375 -0.25125,-0.18 -0.1075,0.15375 -0.1725,0.2525 -0.1725,0.64625 0,0.5375 0.25125,1.05125 0.36,1.255 0.16625,0.3125 0.20875,0.57875 0.235,0.685 0.0525,0.20875 0.20375,0.34625 0.40125,0.34625 0.1925,0 0.355,-0.175 0.355,-0.39 0,-0.38875 -0.47375,-0.635 -0.47375,-1.32 0,-0.44875 0.345,-0.6725 0.355,-0.95875 0.009,-0.25375 -0.22375,-0.0962 -0.39625,-0.21 0.22125,-0.0438 0.3525,-0.29 0.55,-0.27875 0.17375,0.01 0.21375,0.1025 0.22375,0.19125 0.0125,0.1225 -0.0675,0.26375 -0.0925,0.315 0.1925,-0.16625 0.27875,-0.42125 0.27875,-0.55 0,-0.1925 -0.27,-0.405 -0.2,-0.77375 0.009,-0.05 0.009,-0.0425 0.0212,-0.0725 0.08,0.41375 0.6675,0.52125 0.6675,0.93125 0,0.38625 -0.33375,0.3125 -0.525,0.58125 0.20875,-0.085 0.44625,-0.0425 0.44625,0.1875 z m -3.955,-2.82500003 c -0.0537,0.195 -0.0512,0.445 0.22125,0.445 0.21125,0 0.5825,-0.18125 0.65875,-0.2175 l 0.0325,0.07 c -0.0613,0.025 -0.545,0.41250003 -0.93375,0.41750003 -0.21875,0.002 -0.2925,-0.12875003 -0.2925,-0.25625003 0,-0.1975 0.155,-0.26875 0.31375,-0.45875 z M 6.6663569,3.8210048 c 0,0.20125 -0.3075,0.32 -0.37,0.41125 -0.0312,0.045 -0.0562,0.0725 -0.0687,0.1225 -0.0375,-0.13125 0.0325,-0.2375 0.0325,-0.3325 0,-0.10625 -0.075,-0.155 -0.18125,-0.155 -0.16125,0 -0.59375,0.39 -0.3325,1.015 -0.0188,-0.2225 0.0637,-0.3675 0.10125,-0.40875 0.0375,-0.0425 0.0712,-0.12375 0.0625,-0.18875 0.0863,0.155 0.1025,0.22375 0.1025,0.3475 0,0.2675 -0.1925,0.3225 -0.1025,0.52125 0.0175,0.0537 0.0337,0.0987 0.0625,0.16875 0,-0.0937 0.0162,-0.17625 0.0337,-0.24125 0.015,-0.0663 0.1175,-0.18875 0.13,-0.23875 0.0137,-0.05 0.0163,-0.0987 0.005,-0.16 0.0863,0.10625 0.14375,0.2 0.14375,0.37375 0,0.2 -0.0913,0.31625 -0.11625,0.37375 -0.0238,0.0575 -0.0525,0.11375 -0.065,0.2125 -0.055,0.44375 -0.27375,0.65125 -0.56125,0.65125 -0.18125,0 -0.31625,-0.0275 -0.43125,-0.10125 0,0.57 -0.64875,0.52375 -0.64875,0.8975 0,0.10375 0.07,0.225 0.14,0.295 0.0687,0.07 0.3325,0.1675 0.43,0.29375 -0.14125,0.01 -0.295,0.06 -0.375,0.15375 0.2325,0.11625 0.22625,0.2475 0.25625,0.425 -0.22875,-0.115 -0.33375,-0.0475 -0.3925,0.0138 -0.07,0.0737 -0.0362,0.17125 -0.11625,0.285 -0.0375,-0.09 -0.0975,-0.16625 -0.195,-0.16625 -0.1,0 -0.3025,0.17875 -0.305,0.23625 -0.009,0.155 -0.0825,0.21625 -0.2225,0.235 -0.105,0.11125 -0.08,0.16875 -0.0763,0.27375 -0.0913,-0.0863 -0.10625,-0.1425 -0.0712,-0.29875 -0.105,-0.0425 -0.0925,-0.13 -0.0613,-0.2075 l -0.0387,-0.0275 c -0.0575,0.05 -0.115,0.12125 -0.255,0.055 -0.0537,0.0238 -0.12375,0.10625 -0.13625,0.205 -0.0362,-0.235 0.0387,-0.3175 0.0775,-0.35125 -0.025,-0.0537 0.01,-0.165 0.105,-0.20625 0,-0.0238 -0.009,-0.035 -0.0125,-0.0462 -0.0775,0 -0.14375,-0.0325 -0.17125,-0.0825 -0.075,-0.015 -0.17875,0.075 -0.19875,0.13 0,-0.1325 0.10625,-0.26625 0.18375,-0.2975 0.0875,-0.175 0.25625,-0.20625 0.3575,-0.105 0.0563,0.0563 0.19125,0.11625 0.3275,0.11625 0.13625,0 0.26125,-0.1125 0.29375,-0.1575 0.0325,-0.045 0.0375,-0.0537 0.0525,-0.0913 0.0312,-0.0662 0.0887,-0.14625 -0.0525,-0.32375 -0.11,-0.13875 -0.38625,-0.40875 -0.3925,-0.6025 -0.007,-0.3175 0.14,-0.5025 0.2825,-0.63 -0.05,0 -0.0362,0 -0.11375,0 -0.2025,0 -0.22,-0.12625 -0.42625,-0.12625 -0.15125,0 -0.24125,0.15125 -0.24125,0.28375 0,0.13125 0.0238,0.15875 0.07,0.24375 0.0625,0.1175 0.085,0.18125 0.0688,0.3 -0.12,-0.1075 -0.29,-0.1625 -0.425,-0.0425 -0.0525,0.1525 -0.085,0.21125 -0.1825,0.28375 -0.009,-0.12625 -0.2675,-0.3275 -0.5,-0.1125 -0.0238,0.0537 -0.0437,0.175 -0.205,0.175 -0.0962,0 -0.0875,-0.0238 -0.1275,-0.04 -0.0663,0.0575 -0.12125,0.12125 -0.14125,0.20375 -0.0337,-0.125 0.01,-0.23375 0.0537,-0.28625 -0.015,-0.0537 -0.0112,-0.18875 0.0588,-0.22625 -0.0213,-0.0225 -0.0125,-0.007 -0.0312,-0.04 -0.10125,0.085 -0.26,0.095 -0.33,-0.002 -0.0575,0.0125 -0.11375,0.0537 -0.17625,0.17875 -0.015,-0.1275 0.0725,-0.2725 0.13125,-0.315 0.001,-0.0975 0.135,-0.18125 0.2725,-0.1525 0.01,-0.0163 -10e-4,-0.0275 0.0125,-0.0475 0.015,-0.02 -0.005,-0.0112 -0.005,-0.0112 -0.04,-0.0213 -0.17,-0.0275 -0.16125,-0.18875 -0.08,-0.0288 -0.155,0.009 -0.20875,0.055 0.0538,-0.13875 0.17,-0.1825 0.25875,-0.19125 0.0337,-0.0612 0.13375,-0.0675 0.18375,-0.0675 0.095,0 0.15875,0.045 0.175,0.105 0.0962,0.17 0.31375,0.22625 0.5275,0.22625 0.10625,0 0.19625,-0.0813 0.19625,-0.205 0,-0.1225 -0.20875,-0.48125 -0.20875,-0.64625 0,-0.1625 0.295,-0.4775 0.4925,-0.4775 0.6,0 0.73875,0.25 0.87375,0.25 0.18875,0 0.21375,-0.0387 0.245,-0.0687 -0.28375,-0.3475 -0.465,-0.34125 -0.735,-0.5275 -0.135,-0.0925 -0.205,-0.25 -0.22625,-0.39625 -0.1675,0.0388 -0.32875,0.2625 -0.4075,0.40125 -0.0375,-0.0662 -0.095,-0.11125 -0.16375,-0.11125 -0.13375,0 -0.23,0.175 -0.2925,0.32375 -0.0387,-0.17125 -0.14,-0.32875 -0.335,-0.32875 -0.11,0 -0.23375,0.0475 -0.265,0.11875 -0.0312,0.0688 -0.13375,0.175 -0.29375,0.13375 -0.0588,0.0412 -0.11125,0.0575 -0.1525,0.23625 -0.0537,-0.22375 0.001,-0.265 0.0325,-0.32125 -0.0325,-0.14625 0.0288,-0.2 0.0562,-0.235 l -0.015,-0.04 c -0.0875,0.0288 -0.21625,0.0188 -0.25499999,-0.0562 -0.0975,-0.005 -0.125,0.007 -0.21,0.13375 0.0175,-0.1425 0.0975,-0.26 0.1875,-0.29375 0.0337,-0.0838 0.14874999,-0.1175 0.24124999,-0.1175 0.007,-0.0237 0.0137,-0.0237 0.0188,-0.0437 -0.06,-0.0325 -0.11,-0.1075 -0.0988,-0.1975 -0.0737,-0.085 -0.15499999,-0.0325 -0.22249999,-0.007 0.11874999,-0.1225 0.25749999,-0.16875 0.35124999,-0.11375 0.20375,-0.0675 0.27375,0.0275 0.2925,0.14125 0.0225,0.13 0.22625,0.1475 0.4375,0.1475 0.46,0 1.19125,-0.42875 1.1375,-0.7675 -0.10875,-0.0288 -0.12,-0.0237 -0.20625,-0.0237 -0.245,0 -0.5525,0.3075 -0.795,0.31125 0.12125,-0.13625 0.0463,-0.275 0.1125,-0.37625 -0.1325,-0.005 -0.26875,0.0787 -0.5225,0.0562 0.0863,-0.05 0.145,-0.23 0.145,-0.2925 0,-0.0625 0,-0.1875 -0.27375,-0.1875 -0.0275,0.007 -0.1,0.0312 -0.15625,0.0312 -0.0637,0 -0.245,-0.0163 -0.245,-0.15875 -0.09,-0.02 -0.155,0.004 -0.25249999,0.075 0.02,-0.0975 0.20624999,-0.2225 0.26124999,-0.23125 0.0387,-0.0763 0.11375,-0.11 0.15125,-0.105 0.007,-0.0388 0.006,-0.004 0.009,-0.05 -0.0925,-0.0138 -0.21,-0.0475 -0.2075,-0.20125 -0.0662,-0.0612 -0.1075,-0.0738 -0.25499999,-0.035 0.18249999,-0.13625 0.24749999,-0.11625 0.30749999,-0.0937 0.13375,-0.1 0.24375,-0.045 0.28125,-0.002 0.0163,-0.0187 0.03,-0.0225 0.0375,-0.0375 -0.0312,-0.0987 -0.0125,-0.19375 0.03,-0.23625 -0.004,-0.10625 -0.0525,-0.13875 -0.15125,-0.16 0.2025,0.004 0.285,0.05 0.35,0.125 0.11625,0.015 0.19,0.11625 0.19125,0.19 0.004,0.19125 -0.19875,0.3225 0.19125,0.52375 0.12125,0.0625 0.2925,0.125 0.465,0.175 0.17125,0.0512 0.385,0.12875 0.47125,0.12875 -0.0675,-0.105 -0.0387,-0.21 -0.15,-0.31625 0.12625,-0.009 0.2775,0.035 0.39125,0.0575 -0.0238,-0.1525 0.0138,-0.1525 -0.0875,-0.24625 0.0863,0.0125 0.20875,0.0138 0.275,0.0213 0.44375,0.0475 0.45,-0.1725 0.53625,-0.4525 -0.15125,0.009 -0.40625,0.0462 -0.6475,0.2075 0.0225,-0.0838 -0.003,-0.15 -0.003,-0.22125 0,-0.13125 0.10375,-0.15875 0.155,-0.15875 0.0238,0 0.09,-0.0113 0.14,-0.0113 0.0975,0 0.2325,-0.11 0.17,-0.32625 -0.0312,-0.1025 -0.11,-0.1675 -0.2,-0.14 -0.0663,0.0188 -0.0813,0.0175 -0.17875,0.0525 -0.0737,0.0275 -0.0975,0.0863 -0.105,0.165 -0.015,-0.0362 -0.0425,-0.13625 -0.055,-0.16 -0.015,-0.03 -0.025,-0.0487 -0.0513,-0.115 -0.009,-0.0212 -0.006,-0.0212 -0.0187,-0.0487 -0.0463,-0.10875003 0.0275,-0.20000003 0.12125,-0.21750003 0.0775,-0.0163 0.2025,-0.0488 0.28,-0.0713 0.155,-0.0462 0.2025,-0.10625 0.235,-0.1875 0.035,-0.085 0.055,-0.11875 0.1975,-0.11875 0.045,0 0.205,0.005 0.27875,0.005 0.215,0 0.45625,-0.17625 0.37625,-0.36125 0.15125,0.0263 0.21,0.26625 0.1725,0.36125 0.07,0 0.30375,-0.0463 0.35625,-0.0913 -10e-4,0.1625 -0.12625,0.36125 -0.21625,0.41 0.115,0.0125 0.31625,-0.004 0.3775,-0.0575 -0.0375,0.12375 -0.16875,0.38500003 -0.25125,0.42375003 0.2,0.0687 0.33125,0.175 0.42125,0.425 -0.1525,-0.0637 -0.24125,0.0125 -0.37375,-0.009 0.2725,0.32 0.37375,0.80625 0.4525,0.9275 -0.0738,-0.04 -0.22125,-0.1225 -0.33125,-0.1625 0.1125,0.265 -0.055,0.52625 -0.03,0.6675 -0.085,-0.05 -0.19625,-0.11125 -0.2325,-0.18125 -0.045,0.1075 -0.14,0.31625 -0.1025,0.5875 -0.07,-0.0738 -0.19,-0.13125 -0.2425,-0.1725 -0.1025,0.14625 -0.16375,0.24125 -0.16375,0.62 0,0.515 0.24,1.00875 0.345,1.20375 0.16,0.30125 0.19875,0.555 0.225,0.6575 0.05,0.20125 0.195,0.33125 0.385,0.33125 0.185,0 0.34125,-0.1675 0.34125,-0.3725 0,-0.37375 -0.45625,-0.61 -0.45625,-1.2675 0,-0.43125 0.33125,-0.645 0.34125,-0.92 0.009,-0.2425 -0.215,-0.0925 -0.38,-0.20125 0.2125,-0.0412 0.3375,-0.2775 0.5275,-0.2675 0.1675,0.01 0.20625,0.0987 0.21375,0.185 0.0137,0.11625 -0.0638,0.2525 -0.0875,0.30125 0.185,-0.16 0.2675,-0.405 0.2675,-0.5275 0,-0.185 -0.25875,-0.39 -0.1925,-0.74375 0.01,-0.0475 0.009,-0.04 0.0213,-0.0687 0.0763,0.3975 0.64,0.5 0.64,0.89375 0,0.37125 -0.32,0.3 -0.5025,0.5575 0.2,-0.0813 0.4275,-0.04 0.4275,0.18 z m -3.79625,-2.71125 c -0.05,0.1875 -0.0475,0.42875 0.21375,0.42875 0.2025,0 0.5575,-0.175 0.63125,-0.21 l 0.0312,0.0675 c -0.0588,0.0238 -0.5225,0.395 -0.895,0.4 -0.21,0.004 -0.28125,-0.1225 -0.28125,-0.24625 0,-0.18875 0.14875,-0.25625 0.3,-0.44 z m 16.2100001,-3.5125 c -6.6775,0.0575 -12.9437501,0.70875 -17.6137501,1.76124997 -1.84874999,0.41625 -2.535,1.75500003 -2.735,2.82375003 -0.56625,3.03 -1.29875,9.0212502 -1.0675,15.1800002 1.13625,-1.08 11.60375,-11.2612502 11.60375,-11.2612502 L 20.145107,16.962255 c 0,-7.4575002 -0.4875,-14.6012502 -1.065,-19.3650002 m -7.15,16.8225002 c 0,0.19875 -0.30125,0.315 -0.3625,0.40375 -0.0312,0.045 -0.0562,0.0725 -0.0687,0.12125 -0.0363,-0.12875 0.0325,-0.235 0.0325,-0.32625 0,-0.105 -0.0738,-0.15375 -0.1775,-0.15375 -0.15875,0 -0.585,0.38375 -0.3275,0.99875 -0.0175,-0.21875 0.0638,-0.3625 0.1,-0.4025 0.0362,-0.0412 0.07,-0.12125 0.0625,-0.185 0.0825,0.15125 0.1,0.22 0.1,0.34125 0,0.2625 -0.19,0.3175 -0.10125,0.5125 0.0163,0.0525 0.0337,0.0975 0.0613,0.16625 0,-0.0925 0.0162,-0.17375 0.0325,-0.23875 0.0163,-0.0637 0.1175,-0.185 0.12875,-0.23375 0.0125,-0.0487 0.0162,-0.0962 0.004,-0.1575 0.085,0.10625 0.1425,0.1975 0.1425,0.3675 0,0.1975 -0.0888,0.31125 -0.11375,0.36625 -0.0237,0.0575 -0.0525,0.11375 -0.0637,0.21 -0.055,0.43625 -0.27,0.64 -0.55375,0.64 -0.17625,0 -0.31,-0.0275 -0.4225,-0.1 0,0.56 -0.6375001,0.51625 -0.6375001,0.8825 0,0.10125 0.0687,0.22125 0.13625,0.29125 0.0688,0.0675 0.3275001,0.16375 0.4237501,0.28875 -0.13875,0.009 -0.28875,0.0575 -0.3687501,0.15 0.2287501,0.11375 0.2225001,0.24375 0.2525001,0.4175 -0.2250001,-0.1125 -0.3275001,-0.0475 -0.3862501,0.0138 -0.0687,0.0725 -0.035,0.1675 -0.11375,0.28 -0.0362,-0.0888 -0.0962,-0.1625 -0.1925,-0.1625 -0.0975,0 -0.29625,0.17375 -0.29875,0.23 -0.009,0.15375 -0.0813,0.21375 -0.22,0.23125 -0.1025,0.11 -0.0787,0.16625 -0.075,0.26875 -0.0888,-0.0838 -0.1025,-0.13875 -0.0688,-0.2925 -0.10375,-0.0412 -0.0912,-0.12875 -0.06,-0.205 l -0.0388,-0.0263 c -0.0562,0.0488 -0.1125,0.12 -0.25,0.055 -0.0537,0.0225 -0.1225,0.10375 -0.13375,0.2 -0.0363,-0.23125 0.0362,-0.31 0.075,-0.345 -0.0238,-0.0525 0.01,-0.16125 0.10375,-0.2025 0,-0.0225 -0.009,-0.035 -0.0113,-0.0463 -0.0775,0 -0.1425,-0.03 -0.16875,-0.08 -0.075,-0.015 -0.17625,0.0738 -0.195,0.1275 0,-0.12875 0.10375,-0.26 0.18,-0.2925 0.0863,-0.1725 0.25125,-0.2025 0.35125,-0.1025 0.055,0.055 0.1875,0.115 0.3225,0.115 0.13375,0 0.25625,-0.11125 0.2875,-0.15625 0.0325,-0.0438 0.0362,-0.0512 0.0525,-0.0888 0.03,-0.0662 0.0863,-0.145 -0.0525,-0.3175 -0.10875,-0.1375 -0.38,-0.4025 -0.385,-0.5925 -0.009,-0.3125 0.13625,-0.495 0.2775,-0.61875 -0.05,0 -0.0362,0 -0.11125,0 -0.2,0 -0.21625,-0.125 -0.42,-0.125 -0.14875,0 -0.2375,0.15 -0.2375,0.27875 0,0.12875 0.0238,0.15625 0.0688,0.24 0.0625,0.115 0.085,0.1775 0.0687,0.29375 -0.1175,-0.105 -0.285,-0.15875 -0.41875,-0.0412 -0.0512,0.14875 -0.0838,0.2075 -0.17875,0.28 -0.009,-0.125 -0.26375,-0.3225 -0.4925,-0.11125 -0.0225,0.0525 -0.0425,0.17125 -0.20125,0.17125 -0.095,0 -0.085,-0.0225 -0.125,-0.0387 -0.065,0.0562 -0.12,0.11875 -0.13875,0.2 -0.0325,-0.1225 0.01,-0.22875 0.0538,-0.28125 -0.0163,-0.0525 -0.0113,-0.185 0.0575,-0.2225 -0.0213,-0.0225 -0.0125,-0.008 -0.0312,-0.04 -0.1,0.0838 -0.255,0.095 -0.32375,-10e-4 -0.0575,0.0113 -0.1125,0.0512 -0.17375,0.175 -0.015,-0.125 0.0712,-0.26875 0.13,-0.31 0.001,-0.095 0.13125,-0.1775 0.26625,-0.14875 0.01,-0.0163 -0.002,-0.0275 0.0125,-0.0475 0.0138,-0.02 -0.005,-0.01 -0.005,-0.01 -0.0387,-0.0225 -0.16625,-0.0275 -0.15875,-0.1875 -0.0775,-0.0275 -0.15125,0.01 -0.205,0.0563 0.0538,-0.1375 0.1675,-0.18 0.255,-0.18875 0.0325,-0.06 0.13,-0.0675 0.18,-0.0675 0.0937,0 0.15625,0.045 0.1725,0.10375 0.0937,0.1675 0.3075,0.2225 0.5175,0.2225 0.105,0 0.19375,-0.08 0.19375,-0.2 0,-0.12125 -0.205,-0.47375 -0.205,-0.635 0,-0.16125 0.29,-0.47125 0.48375,-0.47125 0.59,0 0.72625,0.24625 0.85875,0.24625 0.18625,0 0.21125,-0.0387 0.24,-0.0675 -0.27875,-0.34125 -0.455,-0.335 -0.72125,-0.5175 -0.1325,-0.0913 -0.20125,-0.24625 -0.2225,-0.39 -0.16375,0.0375 -0.32375,0.2575 -0.40125,0.39375 -0.0363,-0.065 -0.0925,-0.10875 -0.16125,-0.10875 -0.13125,0 -0.225,0.17125 -0.28625,0.3175 -0.0375,-0.1675 -0.1375,-0.32125 -0.32875,-0.32125 -0.1075,0 -0.23,0.045 -0.26,0.115 -0.0312,0.0688 -0.1325,0.1725 -0.29,0.13125 -0.0575,0.0412 -0.10875,0.0575 -0.14875,0.2325 -0.055,-0.22 0,-0.26125 0.0312,-0.315 -0.0312,-0.145 0.0288,-0.19625 0.0562,-0.23125 l -0.0162,-0.0388 c -0.085,0.0275 -0.21125,0.0175 -0.24875,-0.0563 -0.0975,-0.004 -0.125,0.009 -0.2075,0.13125 0.0163,-0.13875 0.0962,-0.25375 0.18375,-0.28875 0.0325,-0.0813 0.14625,-0.115 0.2375,-0.115 0.007,-0.0238 0.0138,-0.0238 0.0188,-0.0425 -0.0588,-0.0325 -0.11,-0.10625 -0.0975,-0.195 -0.0725,-0.0838 -0.1525,-0.0312 -0.21875,-0.006 0.11625,-0.12125 0.25375,-0.16625 0.345,-0.1125 0.2,-0.0662 0.26875,0.0263 0.2875,0.13875 0.0225,0.1275 0.2225,0.145 0.43,0.145 0.4525,0 1.17125,-0.42125 1.11875,-0.755 -0.1075,-0.0275 -0.11875,-0.0225 -0.2025,-0.0225 -0.2425,0 -0.545,0.3025 -0.7825,0.30625 0.11875,-0.135 0.0462,-0.27125 0.11125,-0.37125 -0.13,-0.004 -0.26375,0.0788 -0.51375,0.0562 0.0838,-0.05 0.1425,-0.225 0.1425,-0.2875 0,-0.0613 0,-0.18375 -0.26875,-0.18375 -0.0263,0.008 -0.1,0.03 -0.15375,0.03 -0.0625,0 -0.24,-0.015 -0.24,-0.15625 -0.0888,-0.0188 -0.1525,0.004 -0.2475,0.075 0.0188,-0.0975 0.20125,-0.21875 0.255,-0.2275 0.0375,-0.075 0.1125,-0.1075 0.15,-0.10375 0.007,-0.0387 0.005,-0.004 0.007,-0.0487 -0.0913,-0.0125 -0.20625,-0.0462 -0.20375,-0.1975 -0.065,-0.06 -0.10625,-0.0725 -0.25125,-0.035 0.18,-0.13375 0.24375,-0.11375 0.3025,-0.0913 0.1325,-0.0987 0.23875,-0.045 0.27625,-0.002 0.0163,-0.02 0.03,-0.0225 0.0375,-0.0387 -0.0312,-0.0962 -0.0125,-0.19 0.0288,-0.23125 -0.002,-0.105 -0.0513,-0.13625 -0.1475,-0.1575 0.1975,0.005 0.27875,0.05 0.34375,0.1225 0.115,0.015 0.18625,0.11625 0.1875,0.1875 0.004,0.18875 -0.195,0.31625 0.18875,0.515 0.11875,0.0612 0.28625,0.1225 0.45625,0.1725 0.16875,0.0488 0.3775,0.125 0.4625,0.125 -0.0662,-0.1025 -0.0387,-0.20625 -0.14625,-0.31 0.1225,-0.007 0.2725,0.0337 0.38375,0.0575 -0.0238,-0.15 0.0138,-0.15 -0.085,-0.2425 0.0837,0.0113 0.20375,0.0125 0.26875,0.02 0.43625,0.0462 0.4425,-0.17 0.5275,-0.445 -0.14875,0.01 -0.39875,0.0462 -0.63625,0.20375 0.0225,-0.0812 -0.002,-0.14625 -0.002,-0.21625 0,-0.13 0.1025,-0.15625 0.1525,-0.15625 0.0237,0 0.0887,-0.01 0.1375,-0.01 0.095,0 0.22875,-0.10875 0.16625,-0.32125 -0.0288,-0.10125 -0.1075,-0.165 -0.19625,-0.13875 -0.065,0.0188 -0.08,0.0175 -0.175,0.0525 -0.0725,0.0275 -0.0962,0.085 -0.10375,0.16125 -0.015,-0.035 -0.0412,-0.13375 -0.0537,-0.1575 -0.0138,-0.0288 -0.0238,-0.0462 -0.0512,-0.1125 -0.007,-0.02 -0.006,-0.02 -0.0175,-0.0475 -0.045,-0.10625 0.0263,-0.19625 0.11875,-0.215 0.0775,-0.015 0.2,-0.0462 0.27625,-0.0687 0.15125,-0.045 0.19875,-0.105 0.23,-0.18375 0.0337,-0.0838 0.055,-0.11625 0.19375,-0.11625 0.0437,0 0.2025,0.002 0.27375,0.002 0.21125,0 0.4487501,-0.17125 0.3712501,-0.35375 0.14625,0.0263 0.205,0.26125 0.17,0.35375 0.0675,0 0.2975,-0.0437 0.35,-0.0888 -10e-4,0.16 -0.125,0.355 -0.21375,0.40375 0.1125,0.0113 0.31125,-0.005 0.37125,-0.0562 -0.0362,0.12 -0.16625,0.3775 -0.24625,0.415 0.19625,0.0675 0.325,0.17375 0.41375,0.4175 -0.15,-0.0613 -0.2375,0.0125 -0.36875,-0.007 0.26875,0.315 0.36875,0.7925 0.44625,0.91125 -0.0725,-0.0387 -0.2175,-0.12 -0.32625,-0.16 0.11125,0.26 -0.0537,0.5175 -0.0288,0.65625 -0.085,-0.0487 -0.19375,-0.10875 -0.23,-0.1775 -0.0438,0.105 -0.13625,0.31125 -0.10125,0.57625 -0.0675,-0.0725 -0.185,-0.12875 -0.2375,-0.16875 -0.1000001,0.14375 -0.1612501,0.2375 -0.1612501,0.60875 0,0.50625 0.2362501,0.9925 0.3400001,1.18375 0.15625,0.295 0.195,0.54625 0.22125,0.64625 0.05,0.1975 0.19125,0.325 0.37875,0.325 0.18125,0 0.33375,-0.165 0.33375,-0.36625 0,-0.36625 -0.4475,-0.6 -0.4475,-1.245 0,-0.42375 0.32625,-0.635 0.335,-0.905 0.009,-0.23875 -0.21,-0.09 -0.37375,-0.19625 0.21,-0.0425 0.33375,-0.27375 0.51875,-0.26375 0.165,0.01 0.2025,0.0975 0.21125,0.18125 0.0125,0.115 -0.0625,0.24875 -0.0863,0.29625 0.18125,-0.1575 0.2625,-0.3975 0.2625,-0.51875 0,-0.18125 -0.255,-0.3825 -0.18875,-0.73 0.01,-0.0462 0.009,-0.04 0.02,-0.0688 0.075,0.39125 0.63,0.4925 0.63,0.87875 0,0.365 -0.315,0.29625 -0.49625,0.54875 0.19875,-0.08 0.42125,-0.04 0.42125,0.17625 z m -3.7300001,-2.66375 c -0.05,0.18375 -0.0475,0.42 0.21,0.42 0.2,0 0.54875,-0.17125 0.62125,-0.205 l 0.03,0.0662 c -0.0575,0.0225 -0.5125,0.3875 -0.88,0.3925 -0.20625,0.004 -0.27625,-0.12 -0.27625,-0.24125 0,-0.18625 0.145,-0.2525 0.295,-0.4325 z m 1,-3.2575002 -11.45875,11.1025002 c 8.18125,1.125 15.3400001,1.205 20.9712501,1.2075 h 0.10375 c 0,0 0.0462,-0.38 0.09,-0.755 0.04,-0.34375 0.17875,-0.52625 0.5175,-0.5575 l 0.71,-0.0675 v -0.0125 L 9.2001069,8.4985048 M 24.796357,24.194755 c 5.645,0 12.07,0.03 20.30125,1.1625 -1.11125,6.35875 -8.3775,20.74 -20.085,26.895 -0.5775,-4.76375 -1.54375,-16.37375 -1.54375,-23.83125 l 0.0437,-2.73875 -0.006,-0.10875 0.67875,-0.0625 c 0.34,-0.0312 0.47625,-0.21375 0.5175,-0.5575 0.0387,-0.3125 0.0913,-0.755 0.0913,-0.755 l 0.002,-0.004 m -4.665,1.3825 -0.71,-0.0662 c -0.33875,-0.0325 -0.48,-0.21375 -0.5175,-0.55875 -0.0337,-0.31875 -0.0913,-0.75375 -0.0913,-0.75375 l 0.002,-0.004 c -5.6475,0 -12.0137501,0.03 -20.2450001,1.1625 1.11005001,6.3576 8.3763,20.7401 20.0838001,26.8951 0.57875,-4.76375 1.49125,-16.375 1.49125,-23.83125 l -0.0125,-2.69 v -0.15875 l -0.001,0.005 m 25.57875,-5.97625 c 0.44625,-4.2525 0.025,-12.7950002 -0.82,-17.4187502 -0.19625,-1.07 -0.89,-2.39375003 -2.735,-2.82375003 -4.71875,-1.09874997 -10.96,-1.70999997 -17.6125,-1.76124997 -0.57875,4.76375 -1.0675,11.365 -1.0675,18.8225002 l 0.007,2.85125 0.001,0.1575 0.7075,0.0662 c 0.33875,0.0312 0.46875,0.21625 0.5175,0.5575 0.0475,0.33625 0.0913,0.755 0.0913,0.755 0,0 12.67875,-0.075 20.91,-1.20625"/><path id="path3132" fill="#f95" fill-opacity="1" fill-rule="nonzero" stroke="none" d="m 3.6813569,1.1397548 c -0.0312,0.0587 -0.01,0.16 0.0213,0.2075 0.05,-0.005 0.17125,-0.04 0.23625,-0.08 0.0763,-0.0475 0.0975,-0.0825 0.1775,-0.14 -0.0775,-0.006 -0.42375,-0.007 -0.435,0.0125"/><path id="path3136" fill="#f95" fill-opacity="1" fill-rule="nonzero" stroke="none" d="m 14.420107,0.38475477 c -0.0325,0.0613 -0.0113,0.16625 0.0225,0.21625 0.0525,-0.005 0.1775,-0.0412 0.24625,-0.0837 0.0788,-0.0488 0.10125,-0.0863 0.185,-0.145 -0.0813,-0.006 -0.4425,-0.009 -0.45375,0.0125"/></svg>