<svg xmlns="http://www.w3.org/2000/svg" width="500pt" height="662pt" version="1.1" viewBox="0 0 500 662"><g id="#0d78b9ff"><path fill="#0d78b9" d="M 104.14 17.63 C 152.10 7.05 201.10 0.75 250.25 0.49 C 250.45 68.49 250.26 136.49 250.35 204.49 C 249.98 204.88 249.26 205.67 248.89 206.06 C 206.69 167.13 164.91 127.73 122.86 88.63 C 96.18 88.66 69.50 88.60 42.82 88.66 C 42.82 173.78 42.80 258.91 42.83 344.03 C 43.55 354.30 43.20 364.61 44.12 374.86 C 45.59 394.07 48.41 413.41 55.24 431.51 C 59.54 443.03 66.46 453.31 73.80 463.09 C 89.19 483.23 106.83 501.54 125.16 519.01 C 125.21 434.00 125.16 348.99 125.18 263.98 C 125.28 247.00 124.97 230.01 125.33 213.03 C 153.12 238.10 180.92 263.16 208.72 288.23 C 208.79 330.87 208.68 373.52 208.77 416.16 C 214.52 415.64 220.30 415.73 226.06 415.98 C 234.12 416.36 242.18 415.90 250.25 415.87 C 250.45 471.22 250.27 526.59 250.34 581.95 C 250.25 608.48 250.51 635.01 250.20 661.54 C 239.26 656.12 229.99 647.95 220.17 640.80 C 174.52 605.36 130.19 568.27 85.72 531.37 C 72.53 520.24 60.33 508.00 48.62 495.34 C 33.46 478.39 19.07 460.35 9.19 439.74 C 4.64 430.10 1.20 419.75 0.82 409.02 C 1.32 381.70 0.89 354.35 1.04 327.01 C 0.98 233.93 1.14 140.85 0.96 47.76 C 34.48 35.02 69.16 25.44 104.14 17.63 Z" opacity="1"/></g><g id="#2a6692ff"><path fill="#2a6692" d="M 250.25 0.49 C 312.76 0.78 374.94 10.86 435.21 27.09 C 457.00 33.08 478.67 39.68 499.78 47.79 C 499.66 167.52 499.76 287.25 499.73 406.97 C 499.63 412.53 498.10 417.95 496.39 423.20 C 491.32 438.02 483.34 451.66 474.42 464.46 C 454.79 492.36 429.97 516.06 404.38 538.41 C 388.59 552.32 372.74 566.14 356.76 579.83 C 328.77 603.60 300.81 627.49 271.15 649.17 C 264.47 653.74 258.01 659.05 250.20 661.54 C 250.51 635.01 250.25 608.48 250.34 581.95 C 250.27 526.59 250.45 471.22 250.25 415.87 C 261.26 416.10 272.27 415.69 283.27 416.14 C 285.04 416.42 284.26 414.03 284.53 413.08 C 284.51 370.75 284.47 328.43 284.55 286.11 C 313.81 262.41 342.98 238.60 372.31 214.99 C 372.38 316.20 372.22 417.42 372.39 518.63 C 387.05 503.44 401.44 487.95 414.58 471.41 C 422.70 461.10 430.60 450.50 436.63 438.81 C 445.60 420.35 449.16 399.78 450.89 379.49 C 451.00 380.30 451.11 381.11 451.22 381.93 C 451.04 371.94 452.45 362.00 452.29 352.00 C 452.23 264.45 452.40 176.90 452.21 89.36 L 452.11 88.14 C 432.06 87.79 412.00 88.11 391.94 88.00 C 385.10 88.14 378.23 87.68 371.40 88.20 C 371.08 88.50 370.44 89.10 370.12 89.40 C 330.34 127.91 290.23 166.08 250.35 204.49 C 250.26 136.49 250.45 68.49 250.25 0.49 Z" opacity="1"/></g><g id="#021f3245"><path fill="#021f32" d="M 0.00 48.21 L 0.96 47.76 C 1.14 140.85 0.98 233.93 1.04 327.01 C 0.89 354.35 1.32 381.70 0.82 409.02 L 0.00 410.60 L 0.00 48.21 Z" opacity=".27"/></g><g id="#0c5083ff"><path fill="#0c5083" d="M 370.12 89.40 C 370.44 89.10 371.08 88.50 371.40 88.20 C 378.23 87.68 385.10 88.14 391.94 88.00 C 412.00 88.11 432.06 87.79 452.11 88.14 L 452.21 89.36 C 424.85 89.46 397.49 89.38 370.12 89.40 Z" opacity="1"/></g><g id="#ffffffff"><path fill="#fff" d="M 42.82 88.66 C 69.50 88.60 96.18 88.66 122.86 88.63 C 164.91 127.73 206.69 167.13 248.89 206.06 C 249.26 205.67 249.98 204.88 250.35 204.49 C 290.23 166.08 330.34 127.91 370.12 89.40 C 397.49 89.38 424.85 89.46 452.21 89.36 C 452.40 176.90 452.23 264.45 452.29 352.00 C 452.45 362.00 451.04 371.94 451.22 381.93 C 451.11 381.11 451.00 380.30 450.89 379.49 C 449.16 399.78 445.60 420.35 436.63 438.81 C 430.60 450.50 422.70 461.10 414.58 471.41 C 401.44 487.95 387.05 503.44 372.39 518.63 C 372.22 417.42 372.38 316.20 372.31 214.99 C 342.98 238.60 313.81 262.41 284.55 286.11 C 284.47 328.43 284.51 370.75 284.53 413.08 C 284.26 414.03 285.04 416.42 283.27 416.14 C 272.27 415.69 261.26 416.10 250.25 415.87 C 242.18 415.90 234.12 416.36 226.06 415.98 C 220.30 415.73 214.52 415.64 208.77 416.16 C 208.68 373.52 208.79 330.87 208.72 288.23 C 180.92 263.16 153.12 238.10 125.33 213.03 C 124.97 230.01 125.28 247.00 125.18 263.98 C 125.16 348.99 125.21 434.00 125.16 519.01 C 106.83 501.54 89.19 483.23 73.80 463.09 C 66.46 453.31 59.54 443.03 55.24 431.51 C 48.41 413.41 45.59 394.07 44.12 374.86 C 43.20 364.61 43.55 354.30 42.83 344.03 C 42.80 258.91 42.82 173.78 42.82 88.66 Z" opacity="1"/></g></svg>