<svg xmlns="http://www.w3.org/2000/svg" xmlns:svg="http://www.w3.org/2000/svg" id="svg14" width="2666.667" height="2666.667" preserveAspectRatio="xMidYMid meet" version="1.0" viewBox="0 0 2000 2000"><metadata id="metadata2">Created by potrace 1.16, written by Peter Selinger 2001-2019</metadata><path id="path856" fill="#2862a2" fill-opacity="1" stroke="#2862a2" stroke-dasharray="none" stroke-miterlimit="4" stroke-opacity="0" stroke-width="2.025" d="m 946.11356,1983.2487 c -117.86827,-9.5148 -221.74394,-34.4132 -321.70976,-77.1121 -26.93261,-11.5038 -85.21617,-40.8376 -110.23622,-55.4813 -44.31297,-25.9353 -131.60854,-87.6079 -131.60854,-92.9788 0,-0.9953 2.02474,-4.3836 4.49943,-7.5296 2.47469,-3.1461 4.49944,-6.3306 4.49944,-7.0767 0,-0.746 5.76744,-10.71 12.81653,-22.1423 58.14771,-94.3039 134.76071,-187.9591 201.71413,-246.5844 146.81979,-128.5572 297.67617,-194.8686 489.35873,-215.1057 60.9048,-6.4301 186.6416,-3.5479 246.6167,5.6531 94.7809,14.5407 159.0579,29.0294 239.5951,54.0072 43.8394,13.5963 107.2383,35.7308 124.5769,43.4935 7.2687,3.2543 14.2023,5.9169 15.4081,5.9169 1.2057,0 5.3823,1.47 9.2813,3.2666 3.899,1.7966 14.7922,6.285 24.207,9.9743 21.1119,8.2729 107.9348,46.8077 128.4081,56.9917 l 15.0422,7.4823 -7.9509,14.5734 c -4.373,8.0154 -10.3205,18.6229 -13.2168,23.5722 -2.8962,4.9494 -7.8779,13.5546 -11.0704,19.1226 -35.2432,61.4673 -117.0617,163.9299 -164.7249,206.2877 -9.475,8.4203 -23.8912,21.388 -32.036,28.8171 -47.3466,43.1861 -113.8263,89.4074 -184.2509,128.104 -116.2962,63.902 -259.326,105.8387 -395.2372,115.8847 -28.4946,2.1062 -121.66579,2.665 -143.98204,0.8636 z" opacity="1"/><path id="path860" fill="#2862a2" fill-opacity="1" stroke="#2862a2" stroke-dasharray="none" stroke-miterlimit="4" stroke-opacity="0" stroke-width="8.099" d="M 2501.8387,1775.4423 C 2330.4867,1629.6173 2230.6113,1537.577 2077.6779,1384.5568 1862.1787,1168.9351 1720.4075,998.43564 1619.8005,833.89576 1524.8684,678.63706 1477.266,566.54761 1456.5014,449.37512 c -8.9841,-50.696 -9.7902,-143.0695 -1.6312,-186.90793 7.2192,-38.78825 22.9519,-84.48067 41.5651,-120.71672 17.2836,-33.64763 67.0316,-109.891068 73.2629,-112.282234 4.8822,-1.87348 51.5158,7.811913 106.1923,22.055193 226.7036,59.056521 442.5313,185.279921 607.4745,355.271831 109.5723,112.92607 186.2418,222.69522 249.0778,356.60931 61.9156,131.9524 95.7105,242.79733 117.061,383.95203 6.9737,46.1044 8.1229,64.545 9.4425,151.5118 2.0826,137.257 -2.4162,192.3407 -24.7413,302.9314 -12.5467,62.1519 -31.9117,130.4846 -52.205,184.2143 -8.3576,22.1278 -15.7405,40.7773 -16.4066,41.4434 -0.6661,0.6661 -29.3557,-22.7407 -63.7547,-52.0152 z" opacity="1" transform="scale(0.74999998)"/><path id="path862" fill="#2862a2" fill-opacity="1" stroke="#2862a2" stroke-dasharray="none" stroke-miterlimit="4" stroke-opacity="0" stroke-width="8.099" d="M 227.93368,2058.8091 C 183.97639,1992.0058 159.3599,1947.7761 129.67611,1882.2647 49.151079,1704.5479 10.424848,1527.6001 10.195209,1336.333 10.001947,1175.3637 36.18259,1026.495 91.434211,874.3907 108.40758,827.66404 113.61707,815.74644 146.50517,748.40645 195.46241,648.16411 253.4819,559.38706 323.70169,477.2737 353.6911,442.20481 429.91865,365.62961 470.04124,330.26673 578.07682,235.04742 687.81054,167.48752 835.27709,105.40151 981.72616,43.743889 1139.1641,11.55676 1309.9363,8.3606377 c 81.0426,-1.51677 191.9374,4.4602923 203.5738,10.9723133 5.0576,2.8304 1.5646,4.929435 -77.5896,46.62524 C 1328.2091,122.69698 1164.9737,222.01736 1066.9851,290.4365 803.26422,474.57569 585.32943,692.2256 455.12234,901.49939 378.32264,1024.9348 314.28556,1165.3503 279.91286,1285.6851 c -22.05422,77.2093 -42.67584,184.4584 -50.11172,260.6216 -4.81599,49.3285 -4.89685,252.8771 -0.12155,305.9618 4.46443,49.6288 15.59896,130.7357 27.71098,201.8542 4.99939,29.3551 8.59725,54.8505 7.99524,56.6565 -0.602,1.806 -17.45546,-21.5806 -37.45214,-51.9701 z" opacity="1" transform="scale(0.74999998)"/><path id="path866" fill="#2862a2" fill-opacity="1" stroke="#2862a2" stroke-dasharray="none" stroke-miterlimit="4" stroke-opacity="0" stroke-width="1.012" opacity="1" transform="scale(0.74999998)"/></svg>